<svg xmlns="http://www.w3.org/2000/svg" viewBox="0 0 1600 900">
  <rect fill="#c6f6d5" width="1600" height="900" />
  <polygon fill="#48bb78" points="957 450 539 900 1396 900" />
  <polygon fill="#22543d" points="957 450 872.9 900 1396 900" />
  <polygon fill="#6cc06a" points="-60 900 398 662 816 900" />
  <polygon fill="#30542f" points="337 900 398 662 816 900" />
  <polygon fill="#8dc55d" points="1203 546 1552 900 876 900" />
  <polygon fill="#405220" points="1203 546 1552 900 1162 900" />
  <polygon fill="#adc852" points="641 695 886 900 367 900" />
  <polygon fill="#514f13" points="587 900 641 695 886 900" />
  <polygon fill="#ccc94b" points="1710 900 1401 632 1096 900" />
  <polygon fill="#624a0c" points="1710 900 1401 632 1365 900" />
  <polygon fill="#ecc94b" points="1210 900 971 687 725 900" />
  <polygon fill="#744210" points="943 900 1210 900 971 687" />
</svg>