<?xml version="1.0" encoding="iso-8859-1" ?>
<!-- Generator: Adobe Illustrator 19.0.0, SVG Export Plug-In . SVG Version: 6.00 Build 0)  -->
<svg version="1.1" id="Capa_1" xmlns="http://www.w3.org/2000/svg" xmlns:xlink="http://www.w3.org/1999/xlink" x="0px" y="0px" viewBox="0 0 512.001 512.001" style="enable-background:new 0 0 512.001 512.001;" xml:space="preserve">
	<path style="fill:#B58058;" d="M474.22,110.472L286.305,298.386L80.45,504.241c-10.355,10.355-27.209,10.355-37.627-0.052
	L28.32,489.675c-10.418-10.407-10.407-27.261-0.063-37.616l160.057-160.047l45.808-45.808L422.038,58.289
	c10.344-10.355,27.199-10.355,37.616,0.052l14.503,14.514C484.575,83.262,484.575,100.117,474.22,110.472z" />
	<g>

		<rect x="204.911" y="258.302" transform="matrix(-0.7071 0.7071 -0.7071 -0.7071 613.84 336.144)" style="fill:#8E6047;" width="64.782" height="73.8" />

		<rect x="328.734" y="134.479" transform="matrix(-0.7071 0.7071 -0.7071 -0.7071 737.662 37.2089)" style="fill:#8E6047;" width="64.782" height="73.8" />
		<path style="fill:#8E6047;" d="M462.905,61.594L31.571,492.928l-3.251-3.251c-10.413-10.413-10.412-27.268-0.06-37.621
		L422.035,58.284c10.353-10.353,27.207-10.354,37.621,0.06L462.905,61.594z" />
	</g>
	<path style="fill:#B58058;" d="M104.524,58.284l393.773,393.773c10.353,10.353,10.354,27.207-0.06,37.621l-14.506,14.506
	c-10.413,10.413-27.268,10.412-37.62,0.06L52.338,110.471c-10.353-10.353-10.354-27.207,0.06-37.621l14.506-14.506
	C77.316,47.93,94.171,47.931,104.524,58.284z" />
	<path style="fill:#8E6047;" d="M55.647,69.599l431.334,431.334l-3.251,3.251c-10.413,10.413-27.268,10.412-37.62,0.06
	L52.338,110.471c-10.353-10.353-10.354-27.207,0.06-37.621L55.647,69.599z" />
	<path style="fill:#586473;" d="M194.349,15.648l47.671,47.671c4.755,4.755,7.164,11.016,7.163,17.275
	c-0.061,6.321-2.467,12.581-7.222,17.336L92.987,246.905c-9.57,9.57-25.04,9.51-34.551-0.001l-47.671-47.671
	c-9.569-9.569-9.63-25.039-0.06-34.609L159.679,15.649c4.755-4.755,11.014-7.164,17.335-7.224
	C183.334,8.485,189.594,10.893,194.349,15.648z" />
	<path style="fill:#353B4A;" d="M92.5,212.79l-47.66-47.66c-9.555-9.555-9.555-25.047,0.001-34.602l-34.109,34.109
	c-9.556,9.556-9.556,25.047,0,34.602l47.66,47.66c9.555,9.555,25.046,9.555,34.602,0l34.109-34.109
	C117.546,222.345,102.054,222.345,92.5,212.79z" />
	<path style="fill:#586473;" d="M476.127,289.521L276.035,89.429c-9.556-9.556-9.556-25.047,0-34.603l47.66-47.66
	c9.556-9.556,25.047-9.556,34.603,0l142.236,142.236c5.984,5.984,8.817,14.427,7.653,22.809l-15.523,111.761
	C491.557,291.941,481.815,295.21,476.127,289.521z" />
	<path style="fill:#353B4A;" d="M323.695,7.168l-47.66,47.659c-9.555,9.555-9.556,25.047,0,34.602l21.067,21.067
	c-9.555-9.555-9.555-25.047,0-34.602l47.66-47.66c9.556-9.556,25.047-9.556,34.602-0.001L358.297,7.167
	C348.742-2.388,333.251-2.388,323.695,7.168z" />
	<g></g>
	<g></g>
	<g></g>
	<g></g>
	<g></g>
	<g></g>
	<g></g>
	<g></g>
	<g></g>
	<g></g>
	<g></g>
	<g></g>
	<g></g>
	<g></g>
	<g></g>
</svg>